<mxfile host="app.diagrams.net" modified="2024-05-07T16:42:29.607Z" agent="Mozilla/5.0 (X11; Linux x86_64; rv:125.0) Gecko/20100101 Firefox/125.0" etag="nmCeGYn6-eLpTaXjcX0f" version="24.3.1" type="device">
  <diagram name="Page-1" id="whHoUh4HutGnMUqi3Y0A">
    <mxGraphModel dx="880" dy="524" grid="1" gridSize="10" guides="1" tooltips="1" connect="1" arrows="1" fold="1" page="1" pageScale="1" pageWidth="850" pageHeight="1100" math="0" shadow="0">
      <root>
        <mxCell id="0" />
        <mxCell id="1" parent="0" />
        <mxCell id="OTiAG1ZagbwWr7k3xQRL-14" style="edgeStyle=orthogonalEdgeStyle;rounded=0;orthogonalLoop=1;jettySize=auto;html=1;exitX=1;exitY=0.5;exitDx=0;exitDy=0;entryX=0;entryY=0.75;entryDx=0;entryDy=0;" parent="1" source="OTiAG1ZagbwWr7k3xQRL-2" target="OTiAG1ZagbwWr7k3xQRL-16" edge="1">
          <mxGeometry relative="1" as="geometry">
            <mxPoint x="370" y="334.02200000000005" as="targetPoint" />
          </mxGeometry>
        </mxCell>
        <mxCell id="OTiAG1ZagbwWr7k3xQRL-2" value="Client #2" style="rounded=1;whiteSpace=wrap;html=1;" parent="1" vertex="1">
          <mxGeometry x="60" y="324" width="90" height="40" as="geometry" />
        </mxCell>
        <mxCell id="OTiAG1ZagbwWr7k3xQRL-4" style="edgeStyle=orthogonalEdgeStyle;rounded=0;orthogonalLoop=1;jettySize=auto;html=1;exitX=1;exitY=0.5;exitDx=0;exitDy=0;entryX=0;entryY=0.25;entryDx=0;entryDy=0;" parent="1" source="OTiAG1ZagbwWr7k3xQRL-3" target="OTiAG1ZagbwWr7k3xQRL-16" edge="1">
          <mxGeometry relative="1" as="geometry">
            <mxPoint x="370" y="307.25" as="targetPoint" />
          </mxGeometry>
        </mxCell>
        <mxCell id="OTiAG1ZagbwWr7k3xQRL-3" value="Client #1" style="rounded=1;whiteSpace=wrap;html=1;" parent="1" vertex="1">
          <mxGeometry x="60" y="210" width="90" height="40" as="geometry" />
        </mxCell>
        <mxCell id="OTiAG1ZagbwWr7k3xQRL-6" value="(1) Client sends a execute request" style="text;html=1;align=center;verticalAlign=middle;whiteSpace=wrap;rounded=0;" parent="1" vertex="1">
          <mxGeometry x="130" y="200" width="140" height="30" as="geometry" />
        </mxCell>
        <mxCell id="OTiAG1ZagbwWr7k3xQRL-9" value="&amp;lt;output_dir&amp;gt;" style="swimlane;fontStyle=0;childLayout=stackLayout;horizontal=1;startSize=30;horizontalStack=0;resizeParent=1;resizeParentMax=0;resizeLast=0;collapsible=1;marginBottom=0;whiteSpace=wrap;html=1;" parent="1" vertex="1">
          <mxGeometry x="770" y="200" width="120" height="150" as="geometry" />
        </mxCell>
        <mxCell id="OTiAG1ZagbwWr7k3xQRL-10" value="task_number" style="text;strokeColor=none;fillColor=none;align=left;verticalAlign=middle;spacingLeft=4;spacingRight=4;overflow=hidden;points=[[0,0.5],[1,0.5]];portConstraint=eastwest;rotatable=0;whiteSpace=wrap;html=1;" parent="OTiAG1ZagbwWr7k3xQRL-9" vertex="1">
          <mxGeometry y="30" width="120" height="30" as="geometry" />
        </mxCell>
        <mxCell id="qVnQ6gSnVdwOvjy4rbDo-1" value="history" style="text;strokeColor=none;fillColor=none;align=left;verticalAlign=middle;spacingLeft=4;spacingRight=4;overflow=hidden;points=[[0,0.5],[1,0.5]];portConstraint=eastwest;rotatable=0;whiteSpace=wrap;html=1;" parent="OTiAG1ZagbwWr7k3xQRL-9" vertex="1">
          <mxGeometry y="60" width="120" height="30" as="geometry" />
        </mxCell>
        <mxCell id="OTiAG1ZagbwWr7k3xQRL-11" value="task1/" style="text;strokeColor=none;fillColor=none;align=left;verticalAlign=middle;spacingLeft=4;spacingRight=4;overflow=hidden;points=[[0,0.5],[1,0.5]];portConstraint=eastwest;rotatable=0;whiteSpace=wrap;html=1;" parent="OTiAG1ZagbwWr7k3xQRL-9" vertex="1">
          <mxGeometry y="90" width="120" height="30" as="geometry" />
        </mxCell>
        <mxCell id="OTiAG1ZagbwWr7k3xQRL-13" value="..." style="text;strokeColor=none;fillColor=none;align=left;verticalAlign=middle;spacingLeft=4;spacingRight=4;overflow=hidden;points=[[0,0.5],[1,0.5]];portConstraint=eastwest;rotatable=0;whiteSpace=wrap;html=1;" parent="OTiAG1ZagbwWr7k3xQRL-9" vertex="1">
          <mxGeometry y="120" width="120" height="30" as="geometry" />
        </mxCell>
        <mxCell id="OTiAG1ZagbwWr7k3xQRL-22" style="edgeStyle=orthogonalEdgeStyle;rounded=0;orthogonalLoop=1;jettySize=auto;html=1;entryX=0.5;entryY=0;entryDx=0;entryDy=0;" parent="1" source="OTiAG1ZagbwWr7k3xQRL-16" target="OTiAG1ZagbwWr7k3xQRL-3" edge="1">
          <mxGeometry relative="1" as="geometry">
            <Array as="points">
              <mxPoint x="360" y="160" />
              <mxPoint x="105" y="160" />
            </Array>
          </mxGeometry>
        </mxCell>
        <mxCell id="OTiAG1ZagbwWr7k3xQRL-25" style="edgeStyle=orthogonalEdgeStyle;rounded=0;orthogonalLoop=1;jettySize=auto;html=1;exitX=0.25;exitY=1;exitDx=0;exitDy=0;entryX=0.5;entryY=1;entryDx=0;entryDy=0;" parent="1" source="OTiAG1ZagbwWr7k3xQRL-16" target="OTiAG1ZagbwWr7k3xQRL-2" edge="1">
          <mxGeometry relative="1" as="geometry">
            <Array as="points">
              <mxPoint x="360" y="360" />
              <mxPoint x="360" y="420" />
              <mxPoint x="105" y="420" />
            </Array>
          </mxGeometry>
        </mxCell>
        <mxCell id="OTiAG1ZagbwWr7k3xQRL-30" style="edgeStyle=orthogonalEdgeStyle;rounded=0;orthogonalLoop=1;jettySize=auto;html=1;exitX=0.75;exitY=0;exitDx=0;exitDy=0;entryX=0;entryY=0.5;entryDx=0;entryDy=0;" parent="1" source="OTiAG1ZagbwWr7k3xQRL-16" target="OTiAG1ZagbwWr7k3xQRL-29" edge="1">
          <mxGeometry relative="1" as="geometry" />
        </mxCell>
        <mxCell id="OTiAG1ZagbwWr7k3xQRL-37" style="edgeStyle=orthogonalEdgeStyle;rounded=0;orthogonalLoop=1;jettySize=auto;html=1;exitX=0.75;exitY=1;exitDx=0;exitDy=0;" parent="1" source="OTiAG1ZagbwWr7k3xQRL-16" edge="1">
          <mxGeometry relative="1" as="geometry">
            <mxPoint x="460" y="560" as="targetPoint" />
            <Array as="points">
              <mxPoint x="434" y="560" />
            </Array>
          </mxGeometry>
        </mxCell>
        <mxCell id="OTiAG1ZagbwWr7k3xQRL-16" value="Orchestrator&lt;br&gt;Server" style="rounded=1;whiteSpace=wrap;html=1;" parent="1" vertex="1">
          <mxGeometry x="340" y="294.5" width="125" height="65.5" as="geometry" />
        </mxCell>
        <mxCell id="OTiAG1ZagbwWr7k3xQRL-18" value="&lt;h1 align=&quot;right&quot; style=&quot;margin-top: 0px; font-size: 21px;&quot;&gt;Execute/Schedule/Completed&lt;br&gt;&lt;/h1&gt;&lt;p&gt;In this example, two execute requests are sent, &lt;span class=&quot;yKMVIe&quot; aria-level=&quot;1&quot; role=&quot;heading&quot;&gt;simultaneously&lt;/span&gt;, by the clients. To keep this diagram simple, the server has been limited to one parallel task.&lt;br&gt;&lt;/p&gt;" style="text;html=1;whiteSpace=wrap;overflow=hidden;rounded=0;" parent="1" vertex="1">
          <mxGeometry x="560" y="70" width="330" height="120" as="geometry" />
        </mxCell>
        <mxCell id="OTiAG1ZagbwWr7k3xQRL-19" value="(2) The server notifies the client&amp;nbsp;that his request is being executed." style="text;html=1;align=center;verticalAlign=middle;whiteSpace=wrap;rounded=0;" parent="1" vertex="1">
          <mxGeometry x="160" y="131" width="200" height="30" as="geometry" />
        </mxCell>
        <mxCell id="OTiAG1ZagbwWr7k3xQRL-23" value="&lt;div&gt;(1) The client uses the server FIFO to send the execute request.&lt;/div&gt;&lt;div&gt;(2) The server uses the client FIFO to send the execute response.&lt;br&gt;&lt;/div&gt;&lt;div&gt;(3) The server executes the command requested using the command.c module, which creates the necessary processes to handle this execution.&lt;/div&gt;&lt;div&gt;(4) While the process created by the server is executing the command, another execute request is sent by a client to server.&lt;br&gt;&lt;/div&gt;&lt;div&gt;(5) Since the number of parallel tasks was reached, the server saves this request to execute later, and notifies the respective client that it was scheduled.&lt;br&gt;&lt;/div&gt;&lt;div&gt;(6) Output, errors and time elapsed are written to the respective task files, also the task number, command and elapsed time are written to the history file.&lt;br&gt;&lt;/div&gt;&lt;div&gt;(7) Once an command finishes executing, the server is notified via his FIFO that the request was completed, this triggers the server to look for scheduled requests.&lt;/div&gt;&lt;div&gt;(8) Steps (3), (6) and (7) are repeated for the second request sent.&lt;br&gt;&lt;/div&gt;" style="text;html=1;whiteSpace=wrap;overflow=hidden;rounded=0;" parent="1" vertex="1">
          <mxGeometry x="460" y="374" width="437.75" height="200" as="geometry" />
        </mxCell>
        <mxCell id="OTiAG1ZagbwWr7k3xQRL-24" value="(4) Another client sends a execute request" style="text;html=1;align=center;verticalAlign=middle;whiteSpace=wrap;rounded=0;" parent="1" vertex="1">
          <mxGeometry x="152" y="345" width="140" height="30" as="geometry" />
        </mxCell>
        <mxCell id="OTiAG1ZagbwWr7k3xQRL-27" value="(5) The server notifies the client&amp;nbsp;that his request was scheduled." style="text;html=1;align=center;verticalAlign=middle;whiteSpace=wrap;rounded=0;" parent="1" vertex="1">
          <mxGeometry x="160" y="423" width="200" height="30" as="geometry" />
        </mxCell>
        <mxCell id="OTiAG1ZagbwWr7k3xQRL-32" style="edgeStyle=orthogonalEdgeStyle;rounded=0;orthogonalLoop=1;jettySize=auto;html=1;exitX=0.5;exitY=1;exitDx=0;exitDy=0;entryX=1;entryY=0.25;entryDx=0;entryDy=0;" parent="1" source="OTiAG1ZagbwWr7k3xQRL-29" target="OTiAG1ZagbwWr7k3xQRL-16" edge="1">
          <mxGeometry relative="1" as="geometry" />
        </mxCell>
        <mxCell id="OTiAG1ZagbwWr7k3xQRL-35" style="edgeStyle=orthogonalEdgeStyle;rounded=0;orthogonalLoop=1;jettySize=auto;html=1;exitX=1;exitY=0.5;exitDx=0;exitDy=0;entryX=0;entryY=0.5;entryDx=0;entryDy=0;" parent="1" source="OTiAG1ZagbwWr7k3xQRL-29" target="OTiAG1ZagbwWr7k3xQRL-11" edge="1">
          <mxGeometry relative="1" as="geometry">
            <Array as="points">
              <mxPoint x="740" y="245" />
              <mxPoint x="740" y="305" />
            </Array>
            <mxPoint x="660" y="300" as="targetPoint" />
          </mxGeometry>
        </mxCell>
        <mxCell id="qVnQ6gSnVdwOvjy4rbDo-2" style="edgeStyle=orthogonalEdgeStyle;rounded=0;orthogonalLoop=1;jettySize=auto;html=1;entryX=0;entryY=0.5;entryDx=0;entryDy=0;" parent="1" source="OTiAG1ZagbwWr7k3xQRL-29" target="qVnQ6gSnVdwOvjy4rbDo-1" edge="1">
          <mxGeometry relative="1" as="geometry">
            <Array as="points">
              <mxPoint x="740" y="245" />
              <mxPoint x="740" y="275" />
            </Array>
          </mxGeometry>
        </mxCell>
        <mxCell id="OTiAG1ZagbwWr7k3xQRL-29" value="Set of Processes #1" style="rounded=0;whiteSpace=wrap;html=1;" parent="1" vertex="1">
          <mxGeometry x="532" y="225" width="98" height="40" as="geometry" />
        </mxCell>
        <mxCell id="OTiAG1ZagbwWr7k3xQRL-31" value="(3) Server demands execution of the first execute request" style="text;html=1;align=center;verticalAlign=middle;whiteSpace=wrap;rounded=0;" parent="1" vertex="1">
          <mxGeometry x="415" y="210" width="120" height="30" as="geometry" />
        </mxCell>
        <mxCell id="OTiAG1ZagbwWr7k3xQRL-33" value="(7) The first request finished executing" style="text;html=1;align=center;verticalAlign=middle;whiteSpace=wrap;rounded=0;" parent="1" vertex="1">
          <mxGeometry x="500" y="315" width="120" height="30" as="geometry" />
        </mxCell>
        <mxCell id="OTiAG1ZagbwWr7k3xQRL-36" value="(6) Writing command results to respective files" style="text;html=1;align=center;verticalAlign=middle;whiteSpace=wrap;rounded=0;" parent="1" vertex="1">
          <mxGeometry x="630" y="210" width="113" height="30" as="geometry" />
        </mxCell>
        <mxCell id="OTiAG1ZagbwWr7k3xQRL-38" value="(8)" style="text;html=1;align=center;verticalAlign=middle;whiteSpace=wrap;rounded=0;" parent="1" vertex="1">
          <mxGeometry x="393" y="423" width="60" height="30" as="geometry" />
        </mxCell>
      </root>
    </mxGraphModel>
  </diagram>
</mxfile>
